<svg id="Calque_1" data-name="Calque 1" xmlns="http://www.w3.org/2000/svg" viewBox="0 0 292.78 182.36"><defs><style>.cls-1{fill:#706f6f;}.cls-2{fill:#1d1d1b;}</style></defs><path class="cls-1" d="M70.71,73.38l66.75,136.7h-6.23L106,159.17H34.57L9.65,210.08H4.14Zm-.54,12.28L36.89,154h66.93Z" transform="translate(-4.14 -48.36)"/><path class="cls-1" d="M230.17,73.38l66.75,136.7h-6.23l-25.28-50.91H194l-24.92,50.91H163.6Zm-.54,12.28L196.35,154h66.93Z" transform="translate(-4.14 -48.36)"/><path class="cls-2" d="M144.69,160.93v-6.82h66V217.8Q190,230.73,164.2,230.72h-2.59A85.48,85.48,0,0,1,116.49,218a93.25,93.25,0,0,1-33-33.72,88.32,88.32,0,0,1-12.11-44.77q0-37.36,27-64.27T163,48.36a93.25,93.25,0,0,1,47.71,13.16v8.7q-22.09-15-47.71-15-34.54,0-59.22,24.79T79.13,139.43q0,34.66,24.67,59.57T163,223.91q19.28,0,39.95-9.87V160.93Z" transform="translate(-4.14 -48.36)"/></svg>